<svg width="136" height="85" viewBox="0 0 136 85" fill="none" xmlns="http://www.w3.org/2000/svg">
<path d="M22.7062 54V35.8C22.7062 32.5733 23.4929 30.0667 25.0662 28.28C26.6662 26.4933 28.9329 25.6 31.8662 25.6C34.8262 25.6 37.0929 26.32 38.6662 27.76C40.2662 29.2 41.0662 31.2267 41.0662 33.84C41.0662 35.52 40.6662 36.8933 39.8662 37.96C39.0662 39.0267 37.7062 39.8667 35.7862 40.48V40.64C37.7862 41.4133 39.1196 42.52 39.7862 43.96C40.4796 45.3733 40.8262 47.72 40.8262 51V54H37.0662V48.88C37.0662 46.8533 36.4929 45.28 35.3462 44.16C34.1996 43.0133 32.5462 42.44 30.3862 42.44H28.2262V38.92H30.5062C33.0662 38.92 34.8396 38.4 35.8262 37.36C36.8129 36.32 37.3062 35.08 37.3062 33.64C37.3062 32.28 36.8129 31.1867 35.8262 30.36C34.8662 29.5333 33.5862 29.12 31.9862 29.12C30.1462 29.12 28.7596 29.64 27.8262 30.68C26.9196 31.72 26.4662 33.4267 26.4662 35.8V54H22.7062ZM44.875 37.32C46.7417 35.3733 49.075 34.4 51.875 34.4C53.235 34.4 54.5017 34.6667 55.675 35.2C56.875 35.7067 57.915 36.4133 58.795 37.32C59.7017 38.2267 60.4083 39.2933 60.915 40.52C61.4217 41.72 61.675 43.0133 61.675 44.4C61.675 45.7867 61.4217 47.0933 60.915 48.32C60.435 49.52 59.755 50.5733 58.875 51.48C57.995 52.3867 56.955 53.1067 55.755 53.64C54.555 54.1467 53.2617 54.4 51.875 54.4C50.4617 54.4 49.155 54.1467 47.955 53.64C46.7817 53.1067 45.755 52.3867 44.875 51.48C43.995 50.5733 43.3017 49.52 42.795 48.32C42.315 47.0933 42.075 45.7867 42.075 44.4C42.075 41.5733 43.0083 39.2133 44.875 37.32ZM51.875 37.76C50.0083 37.76 48.5017 38.3733 47.355 39.6C46.235 40.8267 45.675 42.4267 45.675 44.4C45.675 46.3733 46.235 47.9733 47.355 49.2C48.5017 50.4267 50.0083 51.04 51.875 51.04C53.7683 51.04 55.275 50.4267 56.395 49.2C57.515 47.9467 58.075 46.3467 58.075 44.4C58.075 42.4533 57.515 40.8667 56.395 39.64C55.275 38.3867 53.7683 37.76 51.875 37.76ZM63.0781 26H66.6781V44.4C66.6781 46.5067 67.2115 48.1467 68.2781 49.32C69.3715 50.4667 70.8648 51.04 72.7581 51.04C74.7315 51.04 76.2781 50.48 77.3981 49.36C78.5181 48.2133 79.0781 46.56 79.0781 44.4C79.0781 42.3467 78.4648 40.7333 77.2381 39.56C76.0381 38.36 74.4515 37.76 72.4781 37.76C70.7981 37.76 69.3448 38.24 68.1181 39.2V35.6C69.5848 34.8 71.1715 34.4 72.8781 34.4C75.7048 34.4 78.0381 35.32 79.8781 37.16C81.7448 38.9733 82.6781 41.3867 82.6781 44.4C82.6781 47.5733 81.7048 50.04 79.7581 51.8C77.8381 53.5333 75.4115 54.4 72.4781 54.4C69.6781 54.4 67.4115 53.4933 65.6781 51.68C63.9448 49.8667 63.0781 47.44 63.0781 44.4V26ZM93.4672 34.4C98.0005 34.5867 100.267 36.4667 100.267 40.04C100.267 44.4933 97.3472 46.72 91.5072 46.72H89.8672V43.64H91.7872C93.5739 43.64 94.8139 43.3733 95.5072 42.84C96.2005 42.28 96.5472 41.36 96.5472 40.08C96.5472 39.2533 96.2405 38.64 95.6272 38.24C95.0138 37.8133 94.2272 37.6 93.2672 37.6C91.3739 37.6 89.8805 38.2667 88.7872 39.6C87.7205 40.9333 87.1872 42.5333 87.1872 44.4C87.1872 46.3733 87.7605 47.9733 88.9072 49.2C90.0805 50.4267 91.6005 51.04 93.4672 51.04C95.1472 51.04 96.5205 50.6267 97.5872 49.8L99.9872 52.16C98.1472 53.6533 95.9739 54.4 93.4672 54.4C90.4272 54.4 88.0005 53.5067 86.1872 51.72C84.3738 49.9333 83.4672 47.6267 83.4672 44.8C83.4672 41.6533 84.3605 39.1067 86.1472 37.16C87.9338 35.2133 90.3738 34.2933 93.4672 34.4ZM101.663 34.8H108.583C111.543 34.8 113.663 35.24 114.943 36.12C116.089 36.8933 116.809 37.8267 117.103 38.92C117.423 39.9867 117.583 41.4 117.583 43.16V54H114.063V43.2C114.063 42.72 114.049 42.32 114.023 42C113.996 41.6533 113.903 41.2267 113.743 40.72C113.583 40.1867 113.356 39.76 113.063 39.44C112.769 39.0933 112.343 38.8 111.783 38.56C111.223 38.2933 110.543 38.16 109.743 38.16H105.183V54H101.663V34.8Z" fill="#646464"/>
<path d="M63 68.4219V69H56.3672V68.4219H63ZM56.6484 57.625V69H56.0156V57.625H56.6484ZM62.2031 62.8516V63.4375H56.3672V62.8516H62.2031ZM62.9844 57.625V58.2031H56.3672V57.625H62.9844ZM69.5234 62.3516V69H68.9062V60.5469H69.5156L69.5234 62.3516ZM69.4062 64.125L69.1016 63.7656C69.1484 63.3177 69.2578 62.8906 69.4297 62.4844C69.6068 62.0781 69.8385 61.7188 70.125 61.4062C70.4167 61.0938 70.7552 60.8464 71.1406 60.6641C71.5312 60.4818 71.9609 60.3906 72.4297 60.3906C72.8516 60.3906 73.2292 60.4505 73.5625 60.5703C73.8958 60.6849 74.1771 60.8672 74.4062 61.1172C74.6406 61.3672 74.8177 61.6901 74.9375 62.0859C75.0573 62.4766 75.1172 62.9531 75.1172 63.5156V69H74.5V63.5156C74.5 62.849 74.4089 62.3333 74.2266 61.9688C74.0443 61.599 73.7891 61.3385 73.4609 61.1875C73.138 61.0365 72.7604 60.9609 72.3281 60.9609C71.8281 60.9609 71.3958 61.0729 71.0312 61.2969C70.6719 61.5156 70.375 61.7943 70.1406 62.1328C69.9062 62.4661 69.7266 62.8125 69.6016 63.1719C69.4818 63.5312 69.4167 63.849 69.4062 64.125ZM84.8203 69.1562C84.2891 69.1562 83.7969 69.0547 83.3438 68.8516C82.8906 68.6432 82.4948 68.3542 82.1562 67.9844C81.8177 67.6094 81.5521 67.1667 81.3594 66.6562C81.1719 66.1458 81.0781 65.5859 81.0781 64.9766V64.6328C81.0781 64.0026 81.1719 63.4297 81.3594 62.9141C81.5521 62.3932 81.8125 61.9453 82.1406 61.5703C82.4688 61.1901 82.8464 60.8984 83.2734 60.6953C83.7057 60.4922 84.1667 60.3906 84.6562 60.3906C85.151 60.3906 85.599 60.4818 86 60.6641C86.401 60.8464 86.7448 61.1016 87.0312 61.4297C87.3177 61.7578 87.5365 62.1484 87.6875 62.6016C87.8385 63.0547 87.9141 63.5547 87.9141 64.1016V64.625H81.4688V64.0547H87.2969V63.9531C87.2917 63.4219 87.1823 62.9297 86.9688 62.4766C86.7604 62.0234 86.4609 61.6589 86.0703 61.3828C85.6797 61.1016 85.2083 60.9609 84.6562 60.9609C84.2135 60.9609 83.8099 61.0547 83.4453 61.2422C83.0859 61.4297 82.776 61.6901 82.5156 62.0234C82.2552 62.3516 82.0547 62.7396 81.9141 63.1875C81.7734 63.6302 81.7031 64.112 81.7031 64.6328V64.9766C81.7031 65.4766 81.7812 65.9453 81.9375 66.3828C82.0938 66.8203 82.3125 67.2057 82.5938 67.5391C82.875 67.8672 83.2057 68.125 83.5859 68.3125C83.9661 68.5 84.3828 68.5938 84.8359 68.5938C85.3255 68.5938 85.7734 68.5078 86.1797 68.3359C86.5859 68.1641 86.9557 67.862 87.2891 67.4297L87.6953 67.7344C87.5078 68.0052 87.2812 68.2474 87.0156 68.4609C86.75 68.6745 86.4349 68.8438 86.0703 68.9688C85.7109 69.0938 85.2943 69.1562 84.8203 69.1562ZM94.4609 61.9844V69H93.8438V60.5469H94.4531L94.4609 61.9844ZM97.6797 60.4844L97.6406 61.0469C97.5469 61.0312 97.4531 61.0182 97.3594 61.0078C97.2656 60.9974 97.1667 60.9922 97.0625 60.9922C96.6146 60.9922 96.2214 61.0807 95.8828 61.2578C95.5495 61.4349 95.2682 61.6771 95.0391 61.9844C94.8151 62.2917 94.6458 62.6484 94.5312 63.0547C94.4167 63.4609 94.3568 63.8958 94.3516 64.3594L94.0469 64.4219C94.0469 63.8438 94.1068 63.3099 94.2266 62.8203C94.3516 62.3307 94.5391 61.9036 94.7891 61.5391C95.0391 61.1745 95.3542 60.8932 95.7344 60.6953C96.1146 60.4922 96.5625 60.3906 97.0781 60.3906C97.2031 60.3906 97.3177 60.401 97.4219 60.4219C97.526 60.4375 97.612 60.4583 97.6797 60.4844ZM108.68 60.5469H109.281V68.8672C109.281 69.5911 109.148 70.2161 108.883 70.7422C108.617 71.2734 108.24 71.6797 107.75 71.9609C107.266 72.2474 106.685 72.3906 106.008 72.3906C105.622 72.3906 105.253 72.3333 104.898 72.2188C104.549 72.1042 104.227 71.9375 103.93 71.7188C103.638 71.5052 103.385 71.2526 103.172 70.9609L103.555 70.5703C103.888 70.9818 104.25 71.2943 104.641 71.5078C105.036 71.7214 105.482 71.8281 105.977 71.8281C106.56 71.8281 107.049 71.7083 107.445 71.4688C107.841 71.2292 108.141 70.888 108.344 70.4453C108.547 70.0078 108.648 69.487 108.648 68.8828V62.4062L108.68 60.5469ZM102.672 64.8516V64.6875C102.672 64.026 102.745 63.4323 102.891 62.9062C103.036 62.375 103.247 61.9245 103.523 61.5547C103.799 61.1797 104.135 60.8932 104.531 60.6953C104.932 60.4922 105.385 60.3906 105.891 60.3906C106.365 60.3906 106.784 60.4661 107.148 60.6172C107.518 60.763 107.839 60.974 108.109 61.25C108.385 61.5208 108.609 61.8411 108.781 62.2109C108.958 62.5755 109.091 62.9792 109.18 63.4219V66.3359C109.112 66.7266 108.995 67.0938 108.828 67.4375C108.661 67.776 108.44 68.0755 108.164 68.3359C107.888 68.5911 107.56 68.7917 107.18 68.9375C106.799 69.0833 106.365 69.1562 105.875 69.1562C105.375 69.1562 104.927 69.0521 104.531 68.8438C104.135 68.6354 103.799 68.3411 103.523 67.9609C103.247 67.5807 103.036 67.1276 102.891 66.6016C102.745 66.0755 102.672 65.4922 102.672 64.8516ZM103.305 64.6875V64.8516C103.305 65.388 103.357 65.8828 103.461 66.3359C103.57 66.7891 103.732 67.1823 103.945 67.5156C104.164 67.849 104.44 68.1094 104.773 68.2969C105.107 68.4844 105.495 68.5781 105.938 68.5781C106.51 68.5781 106.992 68.474 107.383 68.2656C107.773 68.0573 108.086 67.7812 108.32 67.4375C108.555 67.0938 108.719 66.7135 108.812 66.2969V63.5391C108.755 63.2734 108.667 62.9922 108.547 62.6953C108.427 62.3932 108.258 62.112 108.039 61.8516C107.826 61.5911 107.549 61.3802 107.211 61.2188C106.872 61.0521 106.453 60.9688 105.953 60.9688C105.505 60.9688 105.112 61.0625 104.773 61.25C104.44 61.4375 104.164 61.6979 103.945 62.0312C103.732 62.3646 103.57 62.7578 103.461 63.2109C103.357 63.6641 103.305 64.1562 103.305 64.6875ZM116.602 60.5469V69H115.977V60.5469H116.602ZM115.781 57.9844C115.781 57.8438 115.828 57.724 115.922 57.625C116.021 57.5208 116.146 57.4688 116.297 57.4688C116.443 57.4688 116.565 57.5208 116.664 57.625C116.763 57.724 116.812 57.8438 116.812 57.9844C116.812 58.125 116.763 58.2448 116.664 58.3438C116.565 58.4375 116.443 58.4844 116.297 58.4844C116.146 58.4844 116.021 58.4375 115.922 58.3438C115.828 58.2448 115.781 58.125 115.781 57.9844Z" fill="#646464"/>
</svg>
