<svg width="110" height="56" viewBox="-16 -10 110 56" fill="none" xmlns="http://www.w3.org/2000/svg">
<path d="M2.43563 26V9.62C2.43563 6.716 3.14363 4.46 4.55963 2.852C5.99963 1.244 8.03963 0.439999 10.6796 0.439999C13.3436 0.439999 15.3836 1.088 16.7996 2.384C18.2396 3.68 18.9596 5.504 18.9596 7.856C18.9596 9.368 18.5996 10.604 17.8796 11.564C17.1596 12.524 15.9356 13.28 14.2076 13.832V13.976C16.0076 14.672 17.2076 15.668 17.8076 16.964C18.4316 18.236 18.7436 20.348 18.7436 23.3V26H15.3596V21.392C15.3596 19.568 14.8436 18.152 13.8116 17.144C12.7796 16.112 11.2916 15.596 9.34763 15.596H7.40363V12.428H9.45563C11.7596 12.428 13.3556 11.96 14.2436 11.024C15.1316 10.088 15.5756 8.972 15.5756 7.676C15.5756 6.452 15.1316 5.468 14.2436 4.724C13.3796 3.98 12.2276 3.608 10.7876 3.608C9.13163 3.608 7.88363 4.076 7.04363 5.012C6.22763 5.948 5.81963 7.484 5.81963 9.62V26H2.43563ZM22.3875 10.988C24.0675 9.236 26.1675 8.36 28.6875 8.36C29.9115 8.36 31.0515 8.6 32.1075 9.08C33.1875 9.536 34.1235 10.172 34.9155 10.988C35.7315 11.804 36.3675 12.764 36.8235 13.868C37.2795 14.948 37.5075 16.112 37.5075 17.36C37.5075 18.608 37.2795 19.784 36.8235 20.888C36.3915 21.968 35.7795 22.916 34.9875 23.732C34.1955 24.548 33.2595 25.196 32.1795 25.676C31.0995 26.132 29.9355 26.36 28.6875 26.36C27.4155 26.36 26.2395 26.132 25.1595 25.676C24.1035 25.196 23.1795 24.548 22.3875 23.732C21.5955 22.916 20.9715 21.968 20.5155 20.888C20.0835 19.784 19.8675 18.608 19.8675 17.36C19.8675 14.816 20.7075 12.692 22.3875 10.988ZM28.6875 11.384C27.0075 11.384 25.6515 11.936 24.6195 13.04C23.6115 14.144 23.1075 15.584 23.1075 17.36C23.1075 19.136 23.6115 20.576 24.6195 21.68C25.6515 22.784 27.0075 23.336 28.6875 23.336C30.3915 23.336 31.7475 22.784 32.7555 21.68C33.7635 20.552 34.2675 19.112 34.2675 17.36C34.2675 15.608 33.7635 14.18 32.7555 13.076C31.7475 11.948 30.3915 11.384 28.6875 11.384ZM38.7703 0.799998H42.0103V17.36C42.0103 19.256 42.4903 20.732 43.4503 21.788C44.4343 22.82 45.7783 23.336 47.4823 23.336C49.2583 23.336 50.6503 22.832 51.6583 21.824C52.6663 20.792 53.1703 19.304 53.1703 17.36C53.1703 15.512 52.6183 14.06 51.5143 13.004C50.4343 11.924 49.0063 11.384 47.2303 11.384C45.7183 11.384 44.4103 11.816 43.3063 12.68V9.44C44.6263 8.72 46.0543 8.36 47.5903 8.36C50.1343 8.36 52.2343 9.188 53.8903 10.844C55.5703 12.476 56.4103 14.648 56.4103 17.36C56.4103 20.216 55.5343 22.436 53.7823 24.02C52.0543 25.58 49.8703 26.36 47.2303 26.36C44.7103 26.36 42.6703 25.544 41.1103 23.912C39.5503 22.28 38.7703 20.096 38.7703 17.36V0.799998ZM66.1205 8.36C70.2005 8.528 72.2405 10.22 72.2405 13.436C72.2405 17.444 69.6125 19.448 64.3565 19.448H62.8805V16.676H64.6085C66.2165 16.676 67.3325 16.436 67.9565 15.956C68.5805 15.452 68.8925 14.624 68.8925 13.472C68.8925 12.728 68.6165 12.176 68.0645 11.816C67.5125 11.432 66.8045 11.24 65.9405 11.24C64.2365 11.24 62.8925 11.84 61.9085 13.04C60.9485 14.24 60.4685 15.68 60.4685 17.36C60.4685 19.136 60.9845 20.576 62.0165 21.68C63.0725 22.784 64.4405 23.336 66.1205 23.336C67.6325 23.336 68.8685 22.964 69.8285 22.22L71.9885 24.344C70.3325 25.688 68.3765 26.36 66.1205 26.36C63.3845 26.36 61.2005 25.556 59.5685 23.948C57.9365 22.34 57.1205 20.264 57.1205 17.72C57.1205 14.888 57.9245 12.596 59.5325 10.844C61.1405 9.092 63.3365 8.264 66.1205 8.36ZM73.4963 8.72H79.7243C82.3883 8.72 84.2963 9.116 85.4483 9.908C86.4803 10.604 87.1283 11.444 87.3923 12.428C87.6803 13.388 87.8243 14.66 87.8243 16.244V26H84.6563V16.28C84.6563 15.848 84.6443 15.488 84.6203 15.2C84.5963 14.888 84.5123 14.504 84.3683 14.048C84.2243 13.568 84.0203 13.184 83.7563 12.896C83.4923 12.584 83.1083 12.32 82.6043 12.104C82.1003 11.864 81.4883 11.744 80.7683 11.744H76.6643V26H73.4963V8.72Z" fill="#75D6FF"/>
<path d="M39.875 37.256V37.7619H34.0713V37.256H39.875ZM34.3174 27.8088V37.7619H33.7637V27.8088H34.3174ZM39.1777 32.382V32.8947H34.0713V32.382H39.1777ZM39.8613 27.8088V28.3146H34.0713V27.8088H39.8613ZM45.583 31.9445V37.7619H45.043V30.3654H45.5762L45.583 31.9445ZM45.4805 33.4963L45.2139 33.1818C45.2549 32.7899 45.3506 32.4162 45.501 32.0607C45.6559 31.7053 45.8587 31.3908 46.1094 31.1174C46.3646 30.8439 46.6608 30.6275 46.998 30.468C47.3398 30.3085 47.7158 30.2287 48.126 30.2287C48.4951 30.2287 48.8255 30.2811 49.1172 30.3859C49.4089 30.4862 49.6549 30.6457 49.8555 30.8644C50.0605 31.0832 50.2155 31.3657 50.3203 31.7121C50.4251 32.0539 50.4775 32.4709 50.4775 32.9631V37.7619H49.9375V32.9631C49.9375 32.3797 49.8577 31.9286 49.6982 31.6096C49.5387 31.286 49.3154 31.0581 49.0283 30.926C48.7458 30.7938 48.4154 30.7277 48.0371 30.7277C47.5996 30.7277 47.2214 30.8257 46.9023 31.0217C46.5879 31.2131 46.3281 31.4569 46.123 31.7531C45.918 32.0448 45.7607 32.3478 45.6514 32.6623C45.5465 32.9767 45.4896 33.2547 45.4805 33.4963ZM58.9678 37.8986C58.5029 37.8986 58.0723 37.8098 57.6758 37.632C57.2793 37.4497 56.9329 37.1968 56.6367 36.8732C56.3405 36.5451 56.1081 36.1577 55.9395 35.7111C55.7754 35.2645 55.6934 34.7746 55.6934 34.2414V33.9406C55.6934 33.3892 55.7754 32.8879 55.9395 32.4367C56.1081 31.981 56.3359 31.5891 56.623 31.2609C56.9102 30.9282 57.2406 30.673 57.6143 30.4953C57.9925 30.3176 58.3958 30.2287 58.8242 30.2287C59.2572 30.2287 59.6491 30.3085 60 30.468C60.3509 30.6275 60.6517 30.8508 60.9023 31.1379C61.153 31.425 61.3444 31.7668 61.4766 32.1633C61.6087 32.5598 61.6748 32.9973 61.6748 33.4758V33.9338H56.0352V33.4348H61.1348V33.3459C61.1302 32.881 61.0345 32.4504 60.8477 32.0539C60.6654 31.6574 60.4033 31.3384 60.0615 31.0969C59.7197 30.8508 59.3073 30.7277 58.8242 30.7277C58.4368 30.7277 58.0837 30.8098 57.7646 30.9738C57.4502 31.1379 57.179 31.3657 56.9512 31.6574C56.7233 31.9445 56.5479 32.284 56.4248 32.676C56.3018 33.0633 56.2402 33.4849 56.2402 33.9406V34.2414C56.2402 34.6789 56.3086 35.0891 56.4453 35.4719C56.582 35.8547 56.7734 36.1919 57.0195 36.4836C57.2656 36.7707 57.555 36.9963 57.8877 37.1603C58.2204 37.3244 58.585 37.4064 58.9814 37.4064C59.4098 37.4064 59.8018 37.3312 60.1572 37.1808C60.5127 37.0305 60.8363 36.7661 61.1279 36.3879L61.4834 36.6545C61.3193 36.8915 61.1211 37.1034 60.8887 37.2902C60.6562 37.4771 60.3805 37.6252 60.0615 37.7346C59.7471 37.8439 59.3825 37.8986 58.9678 37.8986ZM67.4033 31.6232V37.7619H66.8633V30.3654H67.3965L67.4033 31.6232ZM70.2197 30.3107L70.1855 30.8029C70.1035 30.7892 70.0215 30.7779 69.9395 30.7687C69.8574 30.7596 69.7708 30.7551 69.6797 30.7551C69.2878 30.7551 68.9437 30.8325 68.6475 30.9875C68.3558 31.1424 68.1097 31.3543 67.9092 31.6232C67.7132 31.8921 67.5651 32.2043 67.4648 32.5598C67.3646 32.9152 67.3122 33.2958 67.3076 33.7014L67.041 33.756C67.041 33.2502 67.0934 32.7831 67.1982 32.3547C67.3076 31.9263 67.4717 31.5526 67.6904 31.2336C67.9092 30.9146 68.1849 30.6685 68.5176 30.4953C68.8503 30.3176 69.2422 30.2287 69.6934 30.2287C69.8027 30.2287 69.903 30.2378 69.9941 30.256C70.0853 30.2697 70.1605 30.2879 70.2197 30.3107ZM79.8447 30.3654H80.3711V37.6457C80.3711 38.2792 80.2549 38.826 80.0225 39.2863C79.79 39.7512 79.4596 40.1066 79.0312 40.3527C78.6074 40.6034 78.0993 40.7287 77.5068 40.7287C77.1696 40.7287 76.846 40.6786 76.5361 40.5783C76.2308 40.478 75.9482 40.3322 75.6885 40.1408C75.4333 39.954 75.2122 39.7329 75.0254 39.4777L75.3604 39.1359C75.652 39.496 75.9688 39.7694 76.3105 39.9562C76.6569 40.1431 77.0465 40.2365 77.4795 40.2365C77.9899 40.2365 78.4183 40.1317 78.7646 39.9221C79.111 39.7124 79.373 39.4139 79.5508 39.0266C79.7285 38.6437 79.8174 38.188 79.8174 37.6594V31.9924L79.8447 30.3654ZM74.5879 34.132V33.9885C74.5879 33.4097 74.6517 32.8902 74.7793 32.4299C74.9069 31.965 75.0915 31.5708 75.333 31.2473C75.5745 30.9191 75.8685 30.6685 76.2148 30.4953C76.5658 30.3176 76.9622 30.2287 77.4043 30.2287C77.819 30.2287 78.1859 30.2948 78.5049 30.4269C78.8285 30.5545 79.1087 30.7391 79.3457 30.9807C79.5872 31.2176 79.7832 31.4979 79.9336 31.8215C80.0885 32.1405 80.2048 32.4937 80.2822 32.881V35.4308C80.223 35.7726 80.1204 36.0939 79.9746 36.3947C79.8288 36.6909 79.6351 36.953 79.3936 37.1808C79.152 37.4042 78.8649 37.5796 78.5322 37.7072C78.1995 37.8348 77.819 37.8986 77.3906 37.8986C76.9531 37.8986 76.5612 37.8075 76.2148 37.6252C75.8685 37.4429 75.5745 37.1854 75.333 36.8527C75.0915 36.52 74.9069 36.1236 74.7793 35.6633C74.6517 35.203 74.5879 34.6926 74.5879 34.132ZM75.1416 33.9885V34.132C75.1416 34.6014 75.1872 35.0344 75.2783 35.4308C75.374 35.8273 75.5153 36.1714 75.7021 36.4631C75.8936 36.7547 76.1351 36.9826 76.4268 37.1467C76.7184 37.3107 77.0579 37.3928 77.4453 37.3928C77.9466 37.3928 78.3682 37.3016 78.71 37.1193C79.0518 36.937 79.3252 36.6955 79.5303 36.3947C79.7354 36.0939 79.8789 35.7613 79.9609 35.3967V32.9836C79.9108 32.7512 79.8333 32.5051 79.7285 32.2453C79.6237 31.981 79.4756 31.7349 79.2842 31.507C79.0973 31.2792 78.8558 31.0946 78.5596 30.9533C78.2633 30.8075 77.8965 30.7346 77.459 30.7346C77.0671 30.7346 76.723 30.8166 76.4268 30.9807C76.1351 31.1447 75.8936 31.3726 75.7021 31.6642C75.5153 31.9559 75.374 32.3 75.2783 32.6965C75.1872 33.093 75.1416 33.5236 75.1416 33.9885ZM86.7764 30.3654V37.7619H86.2295V30.3654H86.7764ZM86.0586 28.1232C86.0586 28.0002 86.0996 27.8954 86.1816 27.8088C86.2682 27.7176 86.3776 27.6721 86.5098 27.6721C86.6374 27.6721 86.7445 27.7176 86.8311 27.8088C86.9176 27.8954 86.9609 28.0002 86.9609 28.1232C86.9609 28.2463 86.9176 28.3511 86.8311 28.4377C86.7445 28.5197 86.6374 28.5607 86.5098 28.5607C86.3776 28.5607 86.2682 28.5197 86.1816 28.4377C86.0996 28.3511 86.0586 28.2463 86.0586 28.1232Z" fill="#75D6FF"/>
</svg>
