<svg width="40" height="40" viewBox="0 0 40 40" fill="none" xmlns="http://www.w3.org/2000/svg">
<circle cx="20" cy="20" r="20" fill="#75D6FF"/>
<path d="M14.6694 28V17.08C14.6694 15.144 15.1414 13.64 16.0854 12.568C17.0454 11.496 18.4054 10.96 20.1654 10.96C21.9414 10.96 23.3014 11.392 24.2454 12.256C25.2054 13.12 25.6854 14.336 25.6854 15.904C25.6854 16.912 25.4454 17.736 24.9654 18.376C24.4854 19.016 23.6694 19.52 22.5174 19.888V19.984C23.7174 20.448 24.5174 21.112 24.9174 21.976C25.3334 22.824 25.5414 24.232 25.5414 26.2V28H23.2854V24.928C23.2854 23.712 22.9414 22.768 22.2534 22.096C21.5654 21.408 20.5734 21.064 19.2774 21.064H17.9814V18.952H19.3494C20.8854 18.952 21.9494 18.64 22.5414 18.016C23.1334 17.392 23.4294 16.648 23.4294 15.784C23.4294 14.968 23.1334 14.312 22.5414 13.816C21.9654 13.32 21.1974 13.072 20.2374 13.072C19.1334 13.072 18.3014 13.384 17.7414 14.008C17.1974 14.632 16.9254 15.656 16.9254 17.08V28H14.6694Z" fill="white"/>
</svg>
